<svg version="1.1" id="Layer_1" xmlns="http://www.w3.org/2000/svg" xmlns:xlink="http://www.w3.org/1999/xlink" x="0px" y="0px"
	 width="100%" viewBox="0 0 640 624" enable-background="new 0 0 640 624" xml:space="preserve">
<path fill="#000000" opacity="1.000000" stroke="none" 
	d="
M263.761047,553.075745 
	C260.733063,550.386536 260.880585,547.610107 261.794800,544.250061 
	C268.691681,518.901794 275.380341,493.497009 282.208557,468.129913 
	C283.366180,463.829254 282.476715,461.456451 277.738861,460.068420 
	C266.398407,456.745941 255.565170,452.056946 244.977173,445.581329 
	C239.000275,455.803864 233.193619,465.670105 227.450638,475.573303 
	C219.429230,489.405365 211.345642,503.203644 203.537170,517.155457 
	C201.547150,520.711121 199.075790,522.626892 195.065781,522.988159 
	C188.181290,523.608459 181.314819,524.428772 174.440796,525.165100 
	C174.158188,524.759888 173.875580,524.354675 173.592972,523.949463 
	C193.472443,495.526062 213.351913,467.102661 233.080841,438.894501 
	C232.488464,436.654663 230.812683,436.009277 229.597595,434.937866 
	C227.178848,432.804993 225.454300,433.366364 223.477646,435.899445 
	C201.750946,463.742004 179.865265,491.460693 158.185547,519.339661 
	C155.525330,522.760498 152.708481,524.684204 148.323395,524.910278 
	C137.193848,525.484009 126.076897,526.323242 114.962555,527.158142 
	C111.869209,527.390503 109.736687,526.990234 109.743942,523.137878 
	C109.763397,512.818665 109.786392,502.493835 109.457596,492.182404 
	C109.329811,488.174927 111.016212,485.834625 113.984665,483.474243 
	C142.410492,460.870941 170.750397,438.159424 199.072754,415.426361 
	C205.215073,410.496185 205.147400,410.189758 199.049362,403.749359 
	C170.029953,423.729370 140.898621,443.786469 111.492889,464.032471 
	C110.057114,461.687317 110.759354,459.567474 110.989555,457.527802 
	C111.548378,452.576630 112.403198,447.647339 112.708427,442.682770 
	C112.946594,438.808990 114.392677,436.322449 117.888405,434.367828 
	C140.712418,421.606049 163.422409,408.640442 186.182144,395.763519 
	C192.083694,392.424561 192.169128,392.427216 189.048019,386.375885 
	C184.837875,378.213104 181.296417,369.768341 178.730621,360.966461 
	C177.604660,357.103851 176.039261,356.004791 171.974960,357.161987 
	C147.180054,364.221649 122.292595,370.956299 97.497322,378.014709 
	C93.597649,379.124817 90.641731,378.926941 87.474442,376.193298 
	C82.214050,371.653168 76.599899,367.522919 70.368057,362.616394 
	C77.983589,359.676483 85.216286,359.089752 92.227448,357.768341 
	C118.042854,352.902679 143.898926,348.252655 169.741684,343.532318 
	C172.616028,343.007294 174.072784,341.675385 173.723206,338.423859 
	C173.347015,334.924988 171.600128,333.842377 168.369583,334.256287 
	C153.702301,336.135529 139.028122,337.961121 124.362938,339.856293 
	C103.096680,342.604523 81.833572,345.377563 60.576134,348.192902 
	C57.972462,348.537781 56.086555,347.382965 54.267368,345.840240 
	C44.995014,337.976837 35.761810,330.066467 26.420908,322.285400 
	C24.191294,320.428101 24.227766,318.994324 26.142157,316.978149 
	C33.824230,308.887695 41.429474,300.724060 49.030937,292.557465 
	C50.554501,290.920654 52.405560,290.541870 54.485535,290.761505 
	C78.944664,293.344299 103.401070,295.953094 127.862877,298.510284 
	C141.246384,299.909302 154.641785,301.194641 168.025040,302.595947 
	C171.262924,302.934998 173.101379,301.758728 173.593933,298.458801 
	C174.094543,295.104919 172.735062,293.794159 169.375610,293.215210 
	C137.447586,287.712952 105.547791,282.046692 73.640831,276.422241 
	C72.068611,276.145081 70.239426,276.465302 69.112007,274.361206 
	C75.065964,268.645905 81.951019,263.989929 88.363640,258.765381 
	C90.499290,257.025391 92.597137,258.463013 94.527412,258.969727 
	C118.817360,265.346344 143.069839,271.865540 167.340317,278.316559 
	C170.358582,279.118805 173.425323,279.738525 176.855240,280.532074 
	C179.860748,270.824982 183.109467,261.612549 187.397141,252.791824 
	C192.083954,243.149979 192.008652,243.040573 182.478500,237.650101 
	C162.324921,226.250717 142.171814,214.849258 121.929367,203.609222 
	C117.436325,201.114365 114.459221,198.563766 114.336006,192.631653 
	C114.206734,186.407852 112.576744,180.183624 112.269867,172.216583 
	C141.849411,192.378647 170.554306,211.944534 199.360535,231.579483 
	C201.824249,229.447861 203.619781,227.374863 205.118149,224.477402 
	C192.617233,214.860214 180.226974,205.332458 167.841354,195.798660 
	C150.681137,182.589600 133.553986,169.337189 116.333015,156.207825 
	C113.861404,154.323456 112.785530,152.258606 112.567070,149.127838 
	C111.791748,138.016724 110.733101,126.923988 109.668304,115.835190 
	C109.271858,111.706688 110.134109,109.364738 115.065895,109.306000 
	C125.874748,109.177277 136.676422,108.510231 147.483902,108.149078 
	C149.807236,108.071434 150.845734,110.128105 152.075455,111.629875 
	C175.401718,140.116455 198.695145,168.629944 222.006866,197.128433 
	C223.473572,198.921478 224.696777,200.956696 226.970215,202.332413 
	C229.616776,201.458649 231.655731,199.645676 233.940903,197.134415 
	C213.535095,168.181961 193.233139,139.376846 172.554291,110.037010 
	C178.894653,108.762482 184.326080,111.042389 189.838455,110.865959 
	C197.309357,110.626846 201.455994,114.313042 205.094116,120.885826 
	C217.029266,142.448364 229.883316,163.500366 242.131134,184.893463 
	C244.587601,189.184143 246.617828,189.943863 250.967712,187.290894 
	C259.233246,182.249786 268.298462,178.795807 277.542358,175.935593 
	C284.127441,173.898041 284.166901,174.025650 282.313293,167.156235 
	C275.683960,142.588028 269.127533,117.999687 262.343018,93.474426 
	C261.379822,89.992615 261.866486,87.382309 264.137878,84.762917 
	C268.799225,79.387337 272.580566,73.268005 278.199127,67.767380 
	C280.459045,74.547104 281.095215,81.098038 282.264191,87.496979 
	C287.071136,113.809769 291.686432,140.157516 296.403442,166.486816 
	C297.233459,171.119781 298.584625,171.596268 306.026428,169.873474 
	C305.801788,161.192642 304.403503,152.542328 303.329926,143.865631 
	C300.452148,120.607452 297.560028,97.351044 294.674988,74.093758 
	C294.327179,71.289925 294.390900,68.360558 293.569946,65.703804 
	C291.039520,57.514801 294.026764,51.482796 299.690491,45.626213 
	C307.069489,37.995964 313.766113,29.705811 321.254089,21.129574 
	C327.541138,27.048143 333.427399,32.581287 339.301514,38.127304 
	C340.270142,39.041832 341.033173,40.280785 342.149597,40.915012 
	C350.431366,45.619781 350.232758,52.996124 349.177582,61.087406 
	C347.008118,77.723053 345.263702,94.414314 343.365021,111.085037 
	C341.391479,128.412659 339.480408,145.747498 337.462799,163.069946 
	C336.706909,169.559906 337.394897,170.695053 342.279602,170.901352 
	C345.220215,171.025543 346.368866,169.837112 346.869812,167.002472 
	C349.702698,150.972412 352.706848,134.972687 355.631287,118.958725 
	C358.789703,101.663284 361.924652,84.363548 365.114014,66.822708 
	C368.447357,67.477921 369.004791,70.560387 370.887573,72.202789 
	C381.490631,81.452187 382.932098,91.811745 378.305176,105.343071 
	C371.163239,126.229683 366.385193,147.920319 360.430603,169.221313 
	C359.391724,172.937653 359.608521,174.776031 363.913910,175.974304 
	C376.139954,179.377090 387.578918,184.791290 398.478638,191.215988 
	C401.210876,189.664139 402.098541,187.029602 403.430542,184.816559 
	C416.488678,163.121109 429.654053,141.486328 442.349152,119.579437 
	C445.000977,115.003380 448.970276,115.591614 452.593201,115.003899 
	C458.616608,114.026787 464.770599,113.854454 470.807220,113.348419 
	C471.705536,115.435509 470.247406,116.374443 469.424988,117.511322 
	C450.679230,143.424332 431.985229,169.375351 413.085968,195.176010 
	C410.541534,198.649551 411.106598,200.472565 414.395660,202.648071 
	C417.301544,204.570099 418.975677,203.237717 420.706726,201.107925 
	C432.262085,186.890762 443.836975,172.689468 455.395508,158.474884 
	C466.115234,145.291962 476.895874,132.157349 487.478973,118.865532 
	C489.858215,115.877373 492.565582,114.309097 496.302429,114.151863 
	C507.605286,113.676231 518.909851,113.216026 530.204407,112.582222 
	C534.100098,112.363609 535.496399,113.761986 535.409058,117.722595 
	C535.192261,127.550682 535.203186,137.390060 535.423035,147.218170 
	C535.502686,150.778961 534.236572,153.092804 531.485962,155.203842 
	C506.386353,174.467163 481.350555,193.813583 456.310944,213.154938 
	C451.697388,216.718613 447.170197,220.393967 442.564056,223.967422 
	C440.552551,225.527969 438.273865,226.716751 440.603973,229.888306 
	C442.774994,232.843399 444.664520,234.180023 448.276764,231.700531 
	C459.676605,223.875473 471.262451,216.321442 482.774200,208.659348 
	C498.030945,198.504562 513.275513,188.331360 528.559509,178.217819 
	C529.872314,177.349121 531.049561,175.935043 533.570679,176.383560 
	C532.978821,184.761520 531.711182,193.044220 530.180969,201.289383 
	C529.789551,203.398483 527.623169,203.816620 526.091309,204.661301 
	C502.905487,217.446335 479.743713,230.278030 456.414368,242.797043 
	C452.186798,245.065659 451.482269,246.875565 453.720184,251.184189 
	C457.855499,259.146027 461.445251,267.424316 463.541992,276.219543 
	C464.487061,280.183838 466.343597,281.010223 470.390686,279.887146 
	C495.554565,272.904266 520.814392,266.267761 545.999573,259.360352 
	C549.263062,258.465302 551.685974,258.941132 554.255493,261.064819 
	C559.867798,265.703430 565.672729,270.109131 571.776001,274.906342 
	C567.796082,277.950256 563.455566,277.486908 559.575439,278.196167 
	C530.951904,283.428375 502.287201,288.435883 473.628418,293.473969 
	C470.224274,294.072418 467.378998,294.860870 468.460419,299.390137 
	C469.085266,302.007050 470.028442,303.384583 473.193817,302.982727 
	C489.351562,300.931305 505.544617,299.160034 521.712341,297.184570 
	C541.495422,294.767395 561.265686,292.245667 581.041199,289.766754 
	C583.484924,289.460449 585.565002,290.061584 587.483032,291.732025 
	C596.652588,299.717987 605.846375,307.677734 615.136292,315.522827 
	C617.668884,317.661560 617.649963,319.212250 615.336731,321.568268 
	C607.984924,329.055908 600.740417,336.655060 593.655151,344.394806 
	C591.324219,346.941010 588.775818,347.464142 585.611389,347.104553 
	C557.049377,343.858887 528.482422,340.657379 499.916229,337.448608 
	C491.167480,336.465881 482.416443,335.503510 473.667114,334.525787 
	C470.930450,334.219971 468.645691,334.442566 468.317047,337.997162 
	C468.026825,341.136139 468.280457,343.302856 472.254883,344.006134 
	C501.065704,349.104340 529.840820,354.404541 558.623779,359.659637 
	C563.144226,360.484985 567.647278,361.405640 572.765015,362.400085 
	C569.978394,366.925293 565.979980,369.084167 562.532837,371.674408 
	C549.663208,381.344910 555.212769,380.821045 538.983826,376.444916 
	C516.497681,370.381500 494.034729,364.231812 471.557709,358.134399 
	C469.496765,357.575287 467.405701,357.127106 464.884705,356.520630 
	C461.069977,368.823914 456.329529,380.474060 450.005432,392.153351 
	C457.850311,396.581726 465.324524,400.831909 472.827850,405.030151 
	C489.835266,414.546021 506.844604,424.058685 523.888123,433.509674 
	C526.109375,434.741455 527.222168,436.217102 527.512451,438.901398 
	C528.328979,446.451904 529.559631,453.957581 530.610107,461.361816 
	C528.035400,462.436615 526.952026,460.832062 525.671997,459.963837 
	C499.618713,442.291626 473.590759,424.582062 447.530823,406.919647 
	C445.297577,405.406067 443.163635,403.095001 440.278442,406.464142 
	C437.868317,409.278534 437.288788,411.110657 440.699585,413.685486 
	C462.371674,430.045654 483.918488,446.571747 505.505280,463.044861 
	C512.525269,468.401886 519.516479,473.796997 526.574951,479.102783 
	C528.538879,480.579041 530.007874,482.263794 530.225159,484.780548 
	C531.254395,496.697815 532.196655,508.623108 533.318298,520.531555 
	C533.687317,524.449097 532.324036,525.692932 528.330261,525.751404 
	C518.524292,525.894897 508.711487,526.381775 498.932037,527.130188 
	C494.912689,527.437683 492.470306,525.903015 490.071198,522.972656 
	C470.022552,498.484009 449.871368,474.079285 429.745331,449.654053 
	C425.932068,445.026245 421.942657,440.533630 418.324097,435.759186 
	C416.233154,433.000336 414.463074,433.374817 412.112640,435.180542 
	C409.851471,436.917755 408.652191,438.508942 410.698181,441.348419 
	C419.267944,453.241821 427.699585,465.234711 436.193726,477.182678 
	C446.908203,492.253662 457.635162,507.315796 468.353271,522.384155 
	C469.020203,523.321777 469.876129,524.188477 469.575562,526.096802 
	C460.951813,525.206665 452.209320,525.143127 443.658691,523.147461 
	C442.098114,522.783203 441.587921,521.073242 440.837433,519.795166 
	C427.258942,496.670563 413.623657,473.578766 400.185547,450.372772 
	C398.095795,446.763947 396.405518,445.677155 392.445923,448.039246 
	C383.989685,453.083710 374.883606,456.795013 365.439240,459.653381 
	C358.794983,461.664307 358.764160,461.736053 360.559021,468.183594 
	C367.247498,492.210022 373.851929,516.261169 380.780975,540.218201 
	C382.161407,544.990967 381.914734,548.621765 378.483154,552.435303 
	C374.100494,557.305786 370.281036,562.683105 366.218811,567.841919 
	C365.750397,567.717163 365.281952,567.592346 364.813538,567.467590 
	C358.433167,533.313171 352.052795,499.158722 345.647705,464.871948 
	C342.389771,465.077850 339.776978,465.029694 336.968048,466.115143 
	C337.523834,476.990356 339.482391,487.593292 340.822479,498.261230 
	C343.636688,520.664001 346.515564,543.058777 349.365906,565.457031 
	C349.407959,565.787231 349.351471,566.147339 349.462250,566.449036 
	C353.318665,576.951965 350.007477,585.165283 342.177032,592.694519 
	C336.321777,598.324463 331.381378,604.926880 326.222565,611.250427 
	C324.023895,613.945435 322.346619,614.811829 319.447876,611.995300 
	C311.686218,604.453552 303.710999,597.130188 295.760834,589.784729 
	C293.972382,588.132324 293.524200,586.234436 293.767914,583.940430 
	C296.717896,556.176819 299.662445,528.412659 302.564392,500.644012 
	C303.617218,490.569611 304.575287,480.485107 305.525177,470.400360 
	C305.746735,468.048309 306.068085,465.466034 302.482483,465.379303 
	C299.703003,465.312073 296.883789,464.605988 296.169495,468.933868 
	C293.381805,485.824951 290.280640,502.663940 287.364532,519.534180 
	C284.562042,535.746826 281.848328,551.974670 279.067627,568.191101 
	C278.992645,568.628418 278.596039,569.010681 277.777588,570.364441 
	C272.994659,564.480103 268.482574,558.928955 263.761047,553.075745 
z"/>

</svg>